<?xml version="1.0" encoding="UTF-8"?>
<svg xmlns="http://www.w3.org/2000/svg" id="Layer_1" data-name="Layer 1" viewBox="0 0 512 512" width="512" height="512"><path d="M458.816,11H53.184A38.175,38.175,0,0,0,15,48.957V364.368C15,385.3,32.225,402,53.184,402H177.13l.475,52H163.027a41.33,41.33,0,0,0-41.5,41.22,5.817,5.817,0,0,0,6,5.78H384.473a5.817,5.817,0,0,0,6-5.78,41.33,41.33,0,0,0-41.5-41.22H334.4l.475-52H458.816C479.775,402,497,385.3,497,364.368V48.957A38.175,38.175,0,0,0,458.816,11ZM348.974,466a29.149,29.149,0,0,1,28.882,23H134.145a29.149,29.149,0,0,1,28.882-23ZM189.131,402H322.87l-.475,52H189.606ZM485,318H133a6,6,0,0,0,0,12H485v34.368C485,378.681,473.159,390,458.816,390H53.184C38.841,390,27,378.681,27,364.368V330H91a6,6,0,0,0,0-12H27V48.957A26.162,26.162,0,0,1,53.184,23H458.816A26.162,26.162,0,0,1,485,48.957Z"/><path d="M256,378.11a18.428,18.428,0,1,0-18.448-18.428A18.459,18.459,0,0,0,256,378.11Zm0-24.856a6.428,6.428,0,1,1-6.448,6.428A6.445,6.445,0,0,1,256,353.254Z"/><path d="M52,75.542a6,6,0,0,0-6,6V203.3a6,6,0,0,0,12,0V81.542A6,6,0,0,0,52,75.542Z"/><path d="M52,51.973a6,6,0,0,0-6,6v4.884a6,6,0,0,0,12,0V57.973A6,6,0,0,0,52,51.973Z"/><path d="M158.207,243.628a5.966,5.966,0,0,0,2.918-.762l21.631-12.072L253,271.285a6,6,0,0,0,5.992,0l70.248-40.491,21.631,12.072a6.02,6.02,0,0,0,5.931-10.478L334,219.614v-77.74a6.082,6.082,0,0,0-3.087-5.2L262,97V71a6,6,0,0,0-12,0V97l-68.913,39.673a6.082,6.082,0,0,0-3.087,5.2v77.74l-22.806,12.774a5.986,5.986,0,0,0-2.274,8.163A6.067,6.067,0,0,0,158.207,243.628ZM322,221.215,262,255.7V186.739l60-34.487ZM256,107.4l59.814,34.476L256,176.347l-59.814-34.476Zm-66,44.857,60,34.487V255.7l-60-34.488Z"/><path d="M382.178,290H114.5l.065-22.545,18.831.054A5.759,5.759,0,1,0,133.379,256h-.016l-18.763-.145.063-22.25,10.879-.077A6.27,6.27,0,0,0,125.526,221h-.015l-10.813.269.068-23.136,18.722.012A6.073,6.073,0,0,0,133.473,186h-.016l-18.657.151.063-22.1,10.772,0A6.023,6.023,0,0,0,125.619,152H125.6l-10.706.064.068-23.237,18.615-.04A5.894,5.894,0,1,0,133.565,117h-.01L115,116.947l.064-22.2,10.665-.054A5.846,5.846,0,1,0,125.713,83H125.7l-10.6-.14.065-22.727A6.093,6.093,0,0,0,109.182,54h-.018a6.027,6.027,0,0,0-6,6.014l-.683,236.367a5.554,5.554,0,0,0,1.751,4.055A5.829,5.829,0,0,0,108.481,302h273.7a6,6,0,0,0,0-12Z"/></svg>
