<svg id="Capa_1" enable-background="new 0 0 512 512" height="512" viewBox="0 0 512 512" width="512" xmlns="http://www.w3.org/2000/svg"><g><path d="m90.751 186.698c-53.845 27.306-90.751 83.185-90.751 147.69 0 91.403 74.097 165.5 165.5 165.5 33.404 0 64.491-9.906 90.5-26.927v-226.263z" fill="#09a1e5"/><path d="m421.249 186.698-165.249 60v226.263c26.009 17.021 57.096 26.927 90.5 26.927 91.403 0 165.5-74.097 165.5-165.5 0-64.505-36.906-120.384-90.751-147.69z" fill="#89c247"/><path d="m256 12.112-60 243.703 225.249-69.117c.163-3.008.251-6.036.251-9.085 0-91.404-74.097-165.501-165.5-165.501z" fill="#cb2e81"/><path d="m90.5 177.612c0 3.049.089 6.077.251 9.085l165.249 69.118v-243.703c-91.403 0-165.5 74.097-165.5 165.5z" fill="#ff3187"/><path d="m165.5 168.888c-26.899 0-52.295 6.423-74.749 17.81 3.281 60.637 39.2 112.589 90.5 138.605l74.749-129.488c-26.009-17.021-57.096-26.927-90.5-26.927z" fill="#ff5178"/><path d="m346.5 168.888c-33.404 0-64.491 9.906-90.5 26.927l74.749 129.488c51.3-26.015 87.219-77.968 90.5-138.605-22.454-11.387-47.85-17.81-74.749-17.81z" fill="#ffd23b"/><path d="m330.749 325.302h-104.749l30 147.659c45.159-29.553 75-80.574 75-138.573 0-3.049-.089-6.077-.251-9.086z" fill="#7ed7ff"/><path d="m181.251 325.302c-.163 3.009-.251 6.037-.251 9.086 0 57.999 29.841 109.02 75 138.573v-147.659z" fill="#bfebff"/><path d="m256 195.815-30 73.649 30 73.649c26.899 0 52.295-6.423 74.749-17.81-2.934-54.218-31.964-101.489-74.749-129.488z" fill="#dff5ff"/><path d="m181.251 325.302c22.454 11.387 47.85 17.81 74.749 17.81v-147.297c-42.785 27.999-71.815 75.27-74.749 129.487z" fill="#fff"/></g></svg>